<svg width="217" height="160" viewBox="0 0 217 160" fill="none" xmlns="http://www.w3.org/2000/svg">
<rect width="217" height="160" fill="#1E1E1E"/>
<g id="Water Intake Management" clip-path="url(#clip0_2_329)">
<rect width="360" height="800" transform="translate(-124 -135)" fill="#F3F9FB"/>
<g id="Shape" clip-path="url(#clip1_2_329)">
<path id="Vector" d="M-243.344 193.109C-246.333 197.802 -249.517 202.382 -252.673 206.944C-261.986 220.403 -272.595 234.815 -276.012 251.246C-279.448 267.708 -278.329 284.945 -272.144 300.839C-264.935 319.401 -250.705 334.79 -234.867 346.311C-223.37 354.67 -209.743 360.235 -195.696 361.415C-179.595 362.765 -166.831 358.939 -154.281 348.778C-145.52 341.691 -137.776 333.268 -128.388 327.044C-111.293 315.7 -90.2341 312.46 -70.1565 308.002C-58.0808 305.316 -45.9488 301.945 -35.0239 296.089C-29.5286 293.149 -24.5774 289.535 -20.0065 285.279C-16.5688 282.071 -12.6554 279.927 -9.42193 276.408C4.3109 261.422 13.659 242.131 16.3205 221.684C17.4603 212.941 17.3583 204.002 15.8708 195.265C10.3993 163.076 -15.2019 134.064 -46.9618 127.815C-58.0043 125.633 -69.4779 126.062 -80.2927 122.84C-96.4588 118.032 -109.41 105.669 -124.668 98.3612C-144.428 88.9099 -168.094 88.5796 -187.733 97.4653C-205.622 105.566 -222.292 122.642 -227.387 142.217C-230.192 152.984 -228.568 163.595 -233.017 174.045C-235.855 180.724 -239.441 187.004 -243.33 193.099L-243.344 193.109Z" fill="#62CDFA" fill-opacity="0.17"/>
</g>
<g id="Shape_2" clip-path="url(#clip2_2_329)">
<path id="Vector_2" d="M146.616 -10.226C144.235 -6.48558 141.697 -2.83602 139.182 0.798745C131.761 11.5245 123.307 23.0092 120.584 36.1019C117.846 49.2207 118.738 62.9564 123.667 75.622C129.411 90.4134 140.75 102.677 153.371 111.857C162.533 118.518 173.392 122.952 184.586 123.893C197.417 124.969 207.588 121.92 217.589 113.823C224.57 108.175 230.741 101.464 238.222 96.5038C251.845 87.4642 268.626 84.882 284.625 81.3295C294.248 79.1892 303.916 76.5034 312.622 71.8365C317.001 69.4939 320.946 66.6135 324.589 63.2224C327.328 60.666 330.446 58.9574 333.023 56.1531C343.966 44.2115 351.416 28.8385 353.537 12.5447C354.445 5.57822 354.364 -1.54499 353.178 -8.50789C348.818 -34.1583 328.417 -57.2773 303.109 -62.2569C294.309 -63.9954 285.166 -63.6538 276.548 -66.221C263.666 -70.0529 253.345 -79.9046 241.187 -85.7277C225.44 -93.2593 206.581 -93.5225 190.931 -86.4417C176.676 -79.9865 163.392 -66.3792 159.332 -50.7799C157.097 -42.2003 158.391 -33.7448 154.845 -25.4176C152.584 -20.0948 149.727 -15.0903 146.627 -10.2334L146.616 -10.226Z" fill="#62CDFA" fill-opacity="0.17"/>
</g>
<g id="water intake" filter="url(#filter0_d_2_329)">
<g clip-path="url(#clip3_2_329)">
<rect x="-102" width="319" height="160" rx="16" fill="white"/>
<path id="Vector 1" d="M-46.6358 85.8903C-120.063 112.876 -184.201 27.0533 -245.686 54.4811C-282.399 63.3287 -356.534 81.9973 -359.365 85.8903C-362.196 89.7832 -364.968 175.989 -366 218.605L179.396 308.409C216.552 262.549 280.336 157.733 238.226 105.355C185.589 39.8824 26.7914 58.9049 -46.6358 85.8903Z" fill="#5DCCFC" fill-opacity="0.41"/>
<path id="Vector 2" d="M50.5574 83.008C-12.7221 100.829 -103.832 47.9457 -155.5 71C-186.352 78.4368 -209.864 79.7358 -212.243 83.008C-214.622 86.2802 -216.951 158.74 -217.818 194.561L240.502 270.045C271.726 231.498 325.327 143.395 289.94 99.3691C245.706 44.3362 114.5 65 50.5574 83.008Z" fill="#5DCCFC" fill-opacity="0.41"/>
<g id="Group 89">
<g id="water drop">
<path id="Ellipse 2" d="M198.478 40.5719C198.478 49.6797 191.095 57.0631 181.987 57.0631C172.879 57.0631 165.496 49.6797 165.496 40.5719C165.496 32.4035 171.067 27.015 179.116 18.912C180.697 17.3209 183.283 17.3152 184.868 18.9018C192.855 26.8966 198.478 32.414 198.478 40.5719Z" fill="url(#paint0_radial_2_329)"/>
<g id="Ellipse 6" opacity="0.8" filter="url(#filter1_f_2_329)">
<path d="M196.335 46.0882C196.335 54.0622 189.874 60.5263 181.905 60.5263C173.936 60.5263 167.475 54.0622 167.475 46.0882C167.475 39.0595 172.184 34.3817 179.033 27.4879C180.614 25.8963 183.202 25.8902 184.787 27.4777C191.584 34.2835 196.335 39.0697 196.335 46.0882Z" fill="url(#paint1_radial_2_329)"/>
</g>
<g id="Subtract" style="mix-blend-mode:color-burn" filter="url(#filter2_f_2_329)">
<path fill-rule="evenodd" clip-rule="evenodd" d="M197.584 45.8787C194.572 49.831 189.814 52.3816 184.461 52.3816C175.353 52.3816 167.97 44.9983 167.97 35.8904C167.97 33.7789 168.342 31.8532 169.033 30.0183C166.791 33.2792 165.496 36.5707 165.496 40.508C165.496 49.6159 172.88 56.9992 181.987 56.9992C189.215 56.9992 195.357 52.3498 197.584 45.8787Z" fill="url(#paint2_radial_2_329)"/>
</g>
<g id="Ellipse 4" style="mix-blend-mode:screen" opacity="0.3">
<circle cx="187.428" cy="31.6666" r="15.6666" fill="url(#paint3_radial_2_329)"/>
</g>
<g id="Ellipse 5" style="mix-blend-mode:screen" opacity="0.7" filter="url(#filter3_f_2_329)">
<circle cx="175.06" cy="47.3332" r="15.6666" fill="url(#paint4_radial_2_329)"/>
</g>
</g>
<g id="water drop_2">
<path id="Ellipse 2_2" d="M178.871 103.467C178.871 126.424 160.26 145.035 137.302 145.035C114.344 145.035 95.7334 126.424 95.7334 103.467C95.7334 81.4286 111.821 67.4182 134.437 44.4529C136.01 42.855 138.599 42.8494 140.179 44.4414C162.608 67.0498 178.871 81.4399 178.871 103.467Z" fill="url(#paint5_radial_2_329)"/>
<g id="Ellipse 6_2" opacity="0.8" filter="url(#filter4_f_2_329)">
<path d="M173.469 117.371C173.469 137.471 157.184 153.765 137.096 153.765C117.008 153.765 100.724 137.471 100.724 117.371C100.724 98.1943 114.63 85.9602 134.229 66.0705C135.803 64.4725 138.394 64.4667 139.975 66.059C159.413 85.6435 173.469 98.2054 173.469 117.371Z" fill="url(#paint6_radial_2_329)"/>
</g>
<g id="Subtract_2" style="mix-blend-mode:color-burn" filter="url(#filter5_f_2_329)">
<path fill-rule="evenodd" clip-rule="evenodd" d="M176.617 116.843C169.023 126.805 157.032 133.235 143.538 133.235C120.58 133.235 101.97 114.624 101.97 91.666C101.97 86.3433 102.908 81.4888 104.65 76.8634C98.9976 85.0833 95.7346 93.3801 95.7346 103.305C95.7346 126.263 114.346 144.874 137.303 144.874C155.521 144.874 171.002 133.154 176.617 116.843Z" fill="url(#paint7_radial_2_329)"/>
</g>
<g id="Ellipse 4_2" style="mix-blend-mode:screen" opacity="0.3">
<circle cx="151.022" cy="81.0195" r="39.4902" fill="url(#paint8_radial_2_329)"/>
</g>
<g id="Ellipse 5_2" style="mix-blend-mode:screen" opacity="0.7" filter="url(#filter6_f_2_329)">
<circle cx="119.845" cy="120.51" r="39.4902" fill="url(#paint9_radial_2_329)"/>
</g>
</g>
</g>
<path id="500ml water(2 Glass)" d="M-74.58 48.166H-79.27V50.952C-79.074 50.6907 -78.7847 50.4713 -78.402 50.294C-78.01 50.1167 -77.5947 50.028 -77.156 50.028C-76.372 50.028 -75.7373 50.196 -75.252 50.532C-74.7573 50.868 -74.4073 51.2927 -74.202 51.806C-73.9873 52.3193 -73.88 52.8607 -73.88 53.43C-73.88 54.1207 -74.0153 54.7367 -74.286 55.278C-74.5473 55.81 -74.944 56.23 -75.476 56.538C-75.9987 56.846 -76.6427 57 -77.408 57C-78.4253 57 -79.242 56.748 -79.858 56.244C-80.474 55.74 -80.8427 55.0727 -80.964 54.242H-79.41C-79.3073 54.6807 -79.0787 55.0307 -78.724 55.292C-78.3693 55.544 -77.926 55.67 -77.394 55.67C-76.7313 55.67 -76.2367 55.4693 -75.91 55.068C-75.574 54.6667 -75.406 54.1347 -75.406 53.472C-75.406 52.8 -75.574 52.2867 -75.91 51.932C-76.246 51.568 -76.7407 51.386 -77.394 51.386C-77.8513 51.386 -78.2387 51.5027 -78.556 51.736C-78.864 51.96 -79.088 52.268 -79.228 52.66H-80.74V46.766H-74.58V48.166ZM-72.3586 51.764C-72.3586 50.1493 -72.0879 48.8893 -71.5466 47.984C-70.9959 47.0693 -70.0533 46.612 -68.7186 46.612C-67.3839 46.612 -66.4459 47.0693 -65.9046 47.984C-65.3539 48.8893 -65.0786 50.1493 -65.0786 51.764C-65.0786 53.3973 -65.3539 54.676 -65.9046 55.6C-66.4459 56.5147 -67.3839 56.972 -68.7186 56.972C-70.0533 56.972 -70.9959 56.5147 -71.5466 55.6C-72.0879 54.676 -72.3586 53.3973 -72.3586 51.764ZM-66.6466 51.764C-66.6466 51.008 -66.6979 50.3687 -66.8006 49.846C-66.8939 49.3233 -67.0899 48.8987 -67.3886 48.572C-67.6873 48.236 -68.1306 48.068 -68.7186 48.068C-69.3066 48.068 -69.7499 48.236 -70.0486 48.572C-70.3473 48.8987 -70.5479 49.3233 -70.6506 49.846C-70.7439 50.3687 -70.7906 51.008 -70.7906 51.764C-70.7906 52.548 -70.7439 53.206 -70.6506 53.738C-70.5573 54.27 -70.3613 54.6993 -70.0626 55.026C-69.7546 55.3527 -69.3066 55.516 -68.7186 55.516C-68.1306 55.516 -67.6873 55.3527 -67.3886 55.026C-67.0806 54.6993 -66.8799 54.27 -66.7866 53.738C-66.6933 53.206 -66.6466 52.548 -66.6466 51.764ZM-63.5298 51.764C-63.5298 50.1493 -63.2592 48.8893 -62.7178 47.984C-62.1672 47.0693 -61.2245 46.612 -59.8898 46.612C-58.5552 46.612 -57.6172 47.0693 -57.0758 47.984C-56.5252 48.8893 -56.2498 50.1493 -56.2498 51.764C-56.2498 53.3973 -56.5252 54.676 -57.0758 55.6C-57.6172 56.5147 -58.5552 56.972 -59.8898 56.972C-61.2245 56.972 -62.1672 56.5147 -62.7178 55.6C-63.2592 54.676 -63.5298 53.3973 -63.5298 51.764ZM-57.8178 51.764C-57.8178 51.008 -57.8692 50.3687 -57.9718 49.846C-58.0652 49.3233 -58.2612 48.8987 -58.5598 48.572C-58.8585 48.236 -59.3018 48.068 -59.8898 48.068C-60.4778 48.068 -60.9212 48.236 -61.2198 48.572C-61.5185 48.8987 -61.7192 49.3233 -61.8218 49.846C-61.9152 50.3687 -61.9618 51.008 -61.9618 51.764C-61.9618 52.548 -61.9152 53.206 -61.8218 53.738C-61.7285 54.27 -61.5325 54.6993 -61.2338 55.026C-60.9258 55.3527 -60.4778 55.516 -59.8898 55.516C-59.3018 55.516 -58.8585 55.3527 -58.5598 55.026C-58.2518 54.6993 -58.0512 54.27 -57.9578 53.738C-57.8645 53.206 -57.8178 52.548 -57.8178 51.764ZM-45.1531 49.16C-44.5464 49.16 -44.0051 49.286 -43.5291 49.538C-43.0438 49.79 -42.6658 50.1633 -42.3951 50.658C-42.1151 51.1527 -41.9751 51.75 -41.9751 52.45V57H-43.5571V52.688C-43.5571 51.9973 -43.7298 51.47 -44.0751 51.106C-44.4204 50.7327 -44.8918 50.546 -45.4891 50.546C-46.0864 50.546 -46.5624 50.7327 -46.9171 51.106C-47.2624 51.47 -47.4351 51.9973 -47.4351 52.688V57H-49.0171V52.688C-49.0171 51.9973 -49.1898 51.47 -49.5351 51.106C-49.8804 50.7327 -50.3518 50.546 -50.9491 50.546C-51.5464 50.546 -52.0224 50.7327 -52.3771 51.106C-52.7224 51.47 -52.8951 51.9973 -52.8951 52.688V57H-54.4911V49.286H-52.8951V50.168C-52.6338 49.8507 -52.3024 49.6033 -51.9011 49.426C-51.4998 49.2487 -51.0704 49.16 -50.6131 49.16C-49.9971 49.16 -49.4464 49.2907 -48.9611 49.552C-48.4758 49.8133 -48.1024 50.1913 -47.8411 50.686C-47.6078 50.2193 -47.2438 49.8507 -46.7491 49.58C-46.2544 49.3 -45.7224 49.16 -45.1531 49.16ZM-38.4882 46.64V57H-40.0842V46.64H-38.4882ZM-22.6761 49.286L-25.0701 57H-26.7501L-28.3041 51.302L-29.8581 57H-31.5381L-33.9461 49.286H-32.3221L-30.7121 55.488L-29.0741 49.286H-27.4081L-25.8401 55.46L-24.2441 49.286H-22.6761ZM-22.1554 53.108C-22.1554 52.3333 -21.9967 51.6473 -21.6794 51.05C-21.3527 50.4527 -20.914 49.9907 -20.3634 49.664C-19.8034 49.328 -19.1874 49.16 -18.5154 49.16C-17.9087 49.16 -17.3814 49.2813 -16.9334 49.524C-16.476 49.7573 -16.112 50.0513 -15.8414 50.406V49.286H-14.2314V57H-15.8414V55.852C-16.112 56.216 -16.4807 56.5193 -16.9474 56.762C-17.414 57.0047 -17.946 57.126 -18.5434 57.126C-19.206 57.126 -19.8127 56.958 -20.3634 56.622C-20.914 56.2767 -21.3527 55.8007 -21.6794 55.194C-21.9967 54.578 -22.1554 53.8827 -22.1554 53.108ZM-15.8414 53.136C-15.8414 52.604 -15.9534 52.142 -16.1774 51.75C-16.392 51.358 -16.6767 51.0593 -17.0314 50.854C-17.386 50.6487 -17.7687 50.546 -18.1794 50.546C-18.59 50.546 -18.9727 50.6487 -19.3274 50.854C-19.682 51.05 -19.9714 51.344 -20.1954 51.736C-20.41 52.1187 -20.5174 52.576 -20.5174 53.108C-20.5174 53.64 -20.41 54.1067 -20.1954 54.508C-19.9714 54.9093 -19.682 55.2173 -19.3274 55.432C-18.9634 55.6373 -18.5807 55.74 -18.1794 55.74C-17.7687 55.74 -17.386 55.6373 -17.0314 55.432C-16.6767 55.2267 -16.392 54.928 -16.1774 54.536C-15.9534 54.1347 -15.8414 53.668 -15.8414 53.136ZM-10.4131 50.588V54.858C-10.4131 55.1473 -10.3477 55.3573 -10.2171 55.488C-10.0771 55.6093 -9.84375 55.67 -9.51708 55.67H-8.53708V57H-9.79708C-10.5157 57 -11.0664 56.832 -11.4491 56.496C-11.8317 56.16 -12.0231 55.614 -12.0231 54.858V50.588H-12.9331V49.286H-12.0231V47.368H-10.4131V49.286H-8.53708V50.588H-10.4131ZM-0.136095 52.954C-0.136095 53.2433 -0.154762 53.5047 -0.192095 53.738H-6.0861C-6.03943 54.354 -5.81076 54.8487 -5.4001 55.222C-4.98943 55.5953 -4.48543 55.782 -3.8881 55.782C-3.02943 55.782 -2.42276 55.4227 -2.0681 54.704H-0.346096C-0.579429 55.4133 -1.0041 55.9967 -1.6201 56.454C-2.22676 56.902 -2.98276 57.126 -3.8881 57.126C-4.62543 57.126 -5.2881 56.9627 -5.8761 56.636C-6.45476 56.3 -6.9121 55.8333 -7.2481 55.236C-7.57476 54.6293 -7.7381 53.9293 -7.7381 53.136C-7.7381 52.3427 -7.57943 51.6473 -7.2621 51.05C-6.93543 50.4433 -6.48276 49.9767 -5.9041 49.65C-5.3161 49.3233 -4.6441 49.16 -3.8881 49.16C-3.1601 49.16 -2.51143 49.3187 -1.9421 49.636C-1.37276 49.9533 -0.929429 50.4013 -0.612096 50.98C-0.294762 51.5493 -0.136095 52.2073 -0.136095 52.954ZM-1.8021 52.45C-1.81143 51.862 -2.02143 51.3907 -2.4321 51.036C-2.84276 50.6813 -3.35143 50.504 -3.9581 50.504C-4.50876 50.504 -4.9801 50.6813 -5.3721 51.036C-5.7641 51.3813 -5.99743 51.8527 -6.0721 52.45H-1.8021ZM2.89053 50.406C3.12386 50.014 3.43186 49.7107 3.81453 49.496C4.20653 49.272 4.66853 49.16 5.20053 49.16V50.812H4.79453C4.1692 50.812 3.6932 50.9707 3.36653 51.288C3.0492 51.6053 2.89053 52.156 2.89053 52.94V57H1.29453V49.286H2.89053V50.406ZM10.0556 59.604C9.14091 58.7267 8.43624 57.6113 7.94158 56.258C7.45624 54.9047 7.21358 53.4533 7.21358 51.904C7.21358 50.3173 7.47491 48.8193 7.99758 47.41C8.52958 46.0007 9.30891 44.8387 10.3356 43.924H11.9876V44.078C10.9142 45.0673 10.1069 46.2527 9.56558 47.634C9.02424 49.0153 8.75358 50.4387 8.75358 51.904C8.75358 53.3133 9.00558 54.676 9.50958 55.992C10.0136 57.308 10.7462 58.4607 11.7076 59.45V59.604H10.0556ZM13.9502 54.83C14.8462 54.0553 15.5509 53.4207 16.0642 52.926C16.5869 52.422 17.0209 51.8993 17.3662 51.358C17.7115 50.8167 17.8842 50.2753 17.8842 49.734C17.8842 49.174 17.7489 48.7353 17.4782 48.418C17.2169 48.1007 16.8015 47.942 16.2322 47.942C15.6815 47.942 15.2522 48.1193 14.9442 48.474C14.6455 48.8193 14.4869 49.286 14.4682 49.874H12.9282C12.9562 48.81 13.2735 47.998 13.8802 47.438C14.4962 46.8687 15.2755 46.584 16.2182 46.584C17.2355 46.584 18.0289 46.864 18.5982 47.424C19.1769 47.984 19.4662 48.7307 19.4662 49.664C19.4662 50.336 19.2935 50.9847 18.9482 51.61C18.6122 52.226 18.2062 52.7813 17.7302 53.276C17.2635 53.7613 16.6662 54.326 15.9382 54.97L15.3082 55.53H19.7462V56.86H12.9422V55.698L13.9502 54.83ZM31.757 50.07C31.505 49.5847 31.155 49.2207 30.707 48.978C30.259 48.726 29.741 48.6 29.153 48.6C28.509 48.6 27.935 48.7447 27.431 49.034C26.927 49.3233 26.5303 49.734 26.241 50.266C25.961 50.798 25.821 51.414 25.821 52.114C25.821 52.814 25.961 53.4347 26.241 53.976C26.5303 54.508 26.927 54.9187 27.431 55.208C27.935 55.4973 28.509 55.642 29.153 55.642C30.021 55.642 30.7257 55.3993 31.267 54.914C31.8083 54.4287 32.1397 53.7707 32.261 52.94H28.607V51.666H33.969V52.912C33.8663 53.668 33.5957 54.3633 33.157 54.998C32.7277 55.6327 32.163 56.1413 31.463 56.524C30.7723 56.8973 30.0023 57.084 29.153 57.084C28.2383 57.084 27.403 56.874 26.647 56.454C25.891 56.0247 25.289 55.432 24.841 54.676C24.4023 53.92 24.183 53.066 24.183 52.114C24.183 51.162 24.4023 50.308 24.841 49.552C25.289 48.796 25.891 48.208 26.647 47.788C27.4123 47.3587 28.2477 47.144 29.153 47.144C30.189 47.144 31.1083 47.4007 31.911 47.914C32.723 48.418 33.311 49.1367 33.675 50.07H31.757ZM36.9991 46.64V57H35.4031V46.64H36.9991ZM38.4225 53.108C38.4225 52.3333 38.5812 51.6473 38.8985 51.05C39.2252 50.4527 39.6639 49.9907 40.2145 49.664C40.7745 49.328 41.3905 49.16 42.0625 49.16C42.6692 49.16 43.1965 49.2813 43.6445 49.524C44.1019 49.7573 44.4659 50.0513 44.7365 50.406V49.286H46.3465V57H44.7365V55.852C44.4659 56.216 44.0972 56.5193 43.6305 56.762C43.1639 57.0047 42.6319 57.126 42.0345 57.126C41.3719 57.126 40.7652 56.958 40.2145 56.622C39.6639 56.2767 39.2252 55.8007 38.8985 55.194C38.5812 54.578 38.4225 53.8827 38.4225 53.108ZM44.7365 53.136C44.7365 52.604 44.6245 52.142 44.4005 51.75C44.1859 51.358 43.9012 51.0593 43.5465 50.854C43.1919 50.6487 42.8092 50.546 42.3985 50.546C41.9879 50.546 41.6052 50.6487 41.2505 50.854C40.8959 51.05 40.6065 51.344 40.3825 51.736C40.1679 52.1187 40.0605 52.576 40.0605 53.108C40.0605 53.64 40.1679 54.1067 40.3825 54.508C40.6065 54.9093 40.8959 55.2173 41.2505 55.432C41.6145 55.6373 41.9972 55.74 42.3985 55.74C42.8092 55.74 43.1919 55.6373 43.5465 55.432C43.9012 55.2267 44.1859 54.928 44.4005 54.536C44.6245 54.1347 44.7365 53.668 44.7365 53.136ZM51.1028 57.126C50.4961 57.126 49.9501 57.0187 49.4648 56.804C48.9888 56.58 48.6108 56.2813 48.3308 55.908C48.0508 55.5253 47.9015 55.1007 47.8828 54.634H49.5348C49.5628 54.9607 49.7168 55.236 49.9968 55.46C50.2861 55.6747 50.6455 55.782 51.0748 55.782C51.5228 55.782 51.8681 55.698 52.1108 55.53C52.3628 55.3527 52.4888 55.1287 52.4888 54.858C52.4888 54.5687 52.3488 54.354 52.0688 54.214C51.7981 54.074 51.3641 53.92 50.7668 53.752C50.1881 53.5933 49.7168 53.4393 49.3528 53.29C48.9888 53.1407 48.6715 52.912 48.4008 52.604C48.1395 52.296 48.0088 51.89 48.0088 51.386C48.0088 50.9753 48.1301 50.602 48.3728 50.266C48.6155 49.9207 48.9608 49.65 49.4088 49.454C49.8661 49.258 50.3888 49.16 50.9768 49.16C51.8541 49.16 52.5588 49.384 53.0908 49.832C53.6321 50.2707 53.9215 50.8727 53.9588 51.638H52.3628C52.3348 51.2927 52.1948 51.0173 51.9428 50.812C51.6908 50.6067 51.3501 50.504 50.9208 50.504C50.5008 50.504 50.1788 50.5833 49.9548 50.742C49.7308 50.9007 49.6188 51.1107 49.6188 51.372C49.6188 51.5773 49.6935 51.75 49.8428 51.89C49.9921 52.03 50.1741 52.142 50.3888 52.226C50.6035 52.3007 50.9208 52.3987 51.3408 52.52C51.9008 52.6693 52.3581 52.8233 52.7128 52.982C53.0768 53.1313 53.3895 53.3553 53.6508 53.654C53.9121 53.9527 54.0475 54.3493 54.0568 54.844C54.0568 55.2827 53.9355 55.6747 53.6928 56.02C53.4501 56.3653 53.1048 56.636 52.6568 56.832C52.2181 57.028 51.7001 57.126 51.1028 57.126ZM58.4413 57.126C57.8347 57.126 57.2887 57.0187 56.8033 56.804C56.3273 56.58 55.9493 56.2813 55.6693 55.908C55.3893 55.5253 55.24 55.1007 55.2213 54.634H56.8733C56.9013 54.9607 57.0553 55.236 57.3353 55.46C57.6247 55.6747 57.984 55.782 58.4133 55.782C58.8613 55.782 59.2067 55.698 59.4493 55.53C59.7013 55.3527 59.8273 55.1287 59.8273 54.858C59.8273 54.5687 59.6873 54.354 59.4073 54.214C59.1367 54.074 58.7027 53.92 58.1053 53.752C57.5267 53.5933 57.0553 53.4393 56.6913 53.29C56.3273 53.1407 56.01 52.912 55.7393 52.604C55.478 52.296 55.3473 51.89 55.3473 51.386C55.3473 50.9753 55.4687 50.602 55.7113 50.266C55.954 49.9207 56.2993 49.65 56.7473 49.454C57.2047 49.258 57.7273 49.16 58.3153 49.16C59.1927 49.16 59.8973 49.384 60.4293 49.832C60.9707 50.2707 61.26 50.8727 61.2973 51.638H59.7013C59.6733 51.2927 59.5333 51.0173 59.2813 50.812C59.0293 50.6067 58.6887 50.504 58.2593 50.504C57.8393 50.504 57.5173 50.5833 57.2933 50.742C57.0693 50.9007 56.9573 51.1107 56.9573 51.372C56.9573 51.5773 57.032 51.75 57.1813 51.89C57.3307 52.03 57.5127 52.142 57.7273 52.226C57.942 52.3007 58.2593 52.3987 58.6793 52.52C59.2393 52.6693 59.6967 52.8233 60.0513 52.982C60.4153 53.1313 60.728 53.3553 60.9893 53.654C61.2507 53.9527 61.386 54.3493 61.3953 54.844C61.3953 55.2827 61.274 55.6747 61.0313 56.02C60.7887 56.3653 60.4433 56.636 59.9953 56.832C59.5567 57.028 59.0387 57.126 58.4413 57.126ZM62.5878 59.604V59.45C63.5492 58.4607 64.2818 57.308 64.7858 55.992C65.2898 54.676 65.5418 53.3133 65.5418 51.904C65.5418 50.4387 65.2712 49.0153 64.7298 47.634C64.1885 46.2527 63.3812 45.0673 62.3078 44.078V43.924H63.9598C64.9865 44.8387 65.7612 46.0007 66.2838 47.41C66.8158 48.8193 67.0818 50.3173 67.0818 51.904C67.0818 53.4533 66.8345 54.9047 66.3398 56.258C65.8545 57.6113 65.1545 58.7267 64.2398 59.604H62.5878Z" fill="#90A5B4"/>
<g id="Button">
<g id="Shadow" opacity="0.3" filter="url(#filter7_f_2_329)">
<rect x="-74" y="119" width="76" height="24" rx="12" fill="#3190E8"/>
</g>
<g id="Button_2">
<rect x="-82" y="109" width="117" height="24" rx="12" fill="white"/>
<g id="Record Hydration">
<path d="M-62.8 125L-64.26 122.35H-64.67V125H-66.38V117.98H-63.51C-62.9567 117.98 -62.4867 118.077 -62.1 118.27C-61.7067 118.463 -61.4133 118.73 -61.22 119.07C-61.0267 119.403 -60.93 119.777 -60.93 120.19C-60.93 120.657 -61.0633 121.073 -61.33 121.44C-61.59 121.807 -61.9767 122.067 -62.49 122.22L-60.87 125H-62.8ZM-64.67 121.14H-63.61C-63.2967 121.14 -63.0633 121.063 -62.91 120.91C-62.75 120.757 -62.67 120.54 -62.67 120.26C-62.67 119.993 -62.75 119.783 -62.91 119.63C-63.0633 119.477 -63.2967 119.4 -63.61 119.4H-64.67V121.14ZM-54.7966 122.12C-54.7966 122.28 -54.8066 122.447 -54.8266 122.62H-58.6966C-58.6699 122.967 -58.5599 123.233 -58.3666 123.42C-58.1666 123.6 -57.9232 123.69 -57.6366 123.69C-57.2099 123.69 -56.9132 123.51 -56.7466 123.15H-54.9266C-55.0199 123.517 -55.1899 123.847 -55.4366 124.14C-55.6766 124.433 -55.9799 124.663 -56.3466 124.83C-56.7132 124.997 -57.1232 125.08 -57.5766 125.08C-58.1232 125.08 -58.6099 124.963 -59.0366 124.73C-59.4632 124.497 -59.7966 124.163 -60.0366 123.73C-60.2766 123.297 -60.3966 122.79 -60.3966 122.21C-60.3966 121.63 -60.2799 121.123 -60.0466 120.69C-59.8066 120.257 -59.4732 119.923 -59.0466 119.69C-58.6199 119.457 -58.1299 119.34 -57.5766 119.34C-57.0366 119.34 -56.5566 119.453 -56.1366 119.68C-55.7166 119.907 -55.3899 120.23 -55.1566 120.65C-54.9166 121.07 -54.7966 121.56 -54.7966 122.12ZM-56.5466 121.67C-56.5466 121.377 -56.6466 121.143 -56.8466 120.97C-57.0466 120.797 -57.2966 120.71 -57.5966 120.71C-57.8832 120.71 -58.1266 120.793 -58.3266 120.96C-58.5199 121.127 -58.6399 121.363 -58.6866 121.67H-56.5466ZM-54.4345 122.21C-54.4345 121.63 -54.3178 121.123 -54.0845 120.69C-53.8445 120.257 -53.5145 119.923 -53.0945 119.69C-52.6678 119.457 -52.1811 119.34 -51.6345 119.34C-50.9345 119.34 -50.3511 119.523 -49.8845 119.89C-49.4111 120.257 -49.1011 120.773 -48.9545 121.44H-50.7745C-50.9278 121.013 -51.2245 120.8 -51.6645 120.8C-51.9778 120.8 -52.2278 120.923 -52.4145 121.17C-52.6011 121.41 -52.6945 121.757 -52.6945 122.21C-52.6945 122.663 -52.6011 123.013 -52.4145 123.26C-52.2278 123.5 -51.9778 123.62 -51.6645 123.62C-51.2245 123.62 -50.9278 123.407 -50.7745 122.98H-48.9545C-49.1011 123.633 -49.4111 124.147 -49.8845 124.52C-50.3578 124.893 -50.9411 125.08 -51.6345 125.08C-52.1811 125.08 -52.6678 124.963 -53.0945 124.73C-53.5145 124.497 -53.8445 124.163 -54.0845 123.73C-54.3178 123.297 -54.4345 122.79 -54.4345 122.21ZM-45.6998 125.08C-46.2464 125.08 -46.7398 124.963 -47.1798 124.73C-47.6131 124.497 -47.9564 124.163 -48.2098 123.73C-48.4564 123.297 -48.5798 122.79 -48.5798 122.21C-48.5798 121.637 -48.4531 121.133 -48.1998 120.7C-47.9464 120.26 -47.5998 119.923 -47.1598 119.69C-46.7198 119.457 -46.2264 119.34 -45.6798 119.34C-45.1331 119.34 -44.6398 119.457 -44.1998 119.69C-43.7598 119.923 -43.4131 120.26 -43.1598 120.7C-42.9064 121.133 -42.7798 121.637 -42.7798 122.21C-42.7798 122.783 -42.9098 123.29 -43.1698 123.73C-43.4231 124.163 -43.7731 124.497 -44.2198 124.73C-44.6598 124.963 -45.1531 125.08 -45.6998 125.08ZM-45.6998 123.6C-45.3731 123.6 -45.0964 123.48 -44.8698 123.24C-44.6364 123 -44.5198 122.657 -44.5198 122.21C-44.5198 121.763 -44.6331 121.42 -44.8598 121.18C-45.0798 120.94 -45.3531 120.82 -45.6798 120.82C-46.0131 120.82 -46.2898 120.94 -46.5098 121.18C-46.7298 121.413 -46.8398 121.757 -46.8398 122.21C-46.8398 122.657 -46.7331 123 -46.5198 123.24C-46.2998 123.48 -46.0264 123.6 -45.6998 123.6ZM-40.3626 120.35C-40.1626 120.043 -39.9126 119.803 -39.6126 119.63C-39.3126 119.45 -38.9792 119.36 -38.6126 119.36V121.17H-39.0826C-39.5092 121.17 -39.8292 121.263 -40.0426 121.45C-40.2559 121.63 -40.3626 121.95 -40.3626 122.41V125H-42.0726V119.42H-40.3626V120.35ZM-38.3352 122.2C-38.3352 121.627 -38.2286 121.123 -38.0152 120.69C-37.7952 120.257 -37.4986 119.923 -37.1252 119.69C-36.7519 119.457 -36.3352 119.34 -35.8752 119.34C-35.5086 119.34 -35.1752 119.417 -34.8752 119.57C-34.5686 119.723 -34.3286 119.93 -34.1552 120.19V117.6H-32.4452V125H-34.1552V124.2C-34.3152 124.467 -34.5452 124.68 -34.8452 124.84C-35.1386 125 -35.4819 125.08 -35.8752 125.08C-36.3352 125.08 -36.7519 124.963 -37.1252 124.73C-37.4986 124.49 -37.7952 124.153 -38.0152 123.72C-38.2286 123.28 -38.3352 122.773 -38.3352 122.2ZM-34.1552 122.21C-34.1552 121.783 -34.2752 121.447 -34.5152 121.2C-34.7486 120.953 -35.0352 120.83 -35.3752 120.83C-35.7152 120.83 -36.0052 120.953 -36.2452 121.2C-36.4786 121.44 -36.5952 121.773 -36.5952 122.2C-36.5952 122.627 -36.4786 122.967 -36.2452 123.22C-36.0052 123.467 -35.7152 123.59 -35.3752 123.59C-35.0352 123.59 -34.7486 123.467 -34.5152 123.22C-34.2752 122.973 -34.1552 122.637 -34.1552 122.21ZM-23.409 117.98V125H-25.119V122.11H-27.779V125H-29.489V117.98H-27.779V120.73H-25.119V117.98H-23.409ZM-16.6745 119.42L-20.1745 127.65H-22.0145L-20.7345 124.81L-23.0045 119.42H-21.0945L-19.8045 122.91L-18.5245 119.42H-16.6745ZM-16.5962 122.2C-16.5962 121.627 -16.4895 121.123 -16.2762 120.69C-16.0562 120.257 -15.7595 119.923 -15.3862 119.69C-15.0128 119.457 -14.5962 119.34 -14.1362 119.34C-13.7695 119.34 -13.4362 119.417 -13.1362 119.57C-12.8295 119.723 -12.5895 119.93 -12.4162 120.19V117.6H-10.7062V125H-12.4162V124.2C-12.5762 124.467 -12.8062 124.68 -13.1062 124.84C-13.3995 125 -13.7428 125.08 -14.1362 125.08C-14.5962 125.08 -15.0128 124.963 -15.3862 124.73C-15.7595 124.49 -16.0562 124.153 -16.2762 123.72C-16.4895 123.28 -16.5962 122.773 -16.5962 122.2ZM-12.4162 122.21C-12.4162 121.783 -12.5362 121.447 -12.7762 121.2C-13.0095 120.953 -13.2962 120.83 -13.6362 120.83C-13.9762 120.83 -14.2662 120.953 -14.5062 121.2C-14.7395 121.44 -14.8562 121.773 -14.8562 122.2C-14.8562 122.627 -14.7395 122.967 -14.5062 123.22C-14.2662 123.467 -13.9762 123.59 -13.6362 123.59C-13.2962 123.59 -13.0095 123.467 -12.7762 123.22C-12.5362 122.973 -12.4162 122.637 -12.4162 122.21ZM-7.95906 120.35C-7.75906 120.043 -7.50906 119.803 -7.20906 119.63C-6.90906 119.45 -6.57573 119.36 -6.20906 119.36V121.17H-6.67906C-7.10573 121.17 -7.42573 121.263 -7.63906 121.45C-7.8524 121.63 -7.95906 121.95 -7.95906 122.41V125H-9.66906V119.42H-7.95906V120.35ZM-5.93172 122.2C-5.93172 121.627 -5.82505 121.123 -5.61172 120.69C-5.39172 120.257 -5.09505 119.923 -4.72172 119.69C-4.34839 119.457 -3.93172 119.34 -3.47172 119.34C-3.07839 119.34 -2.73505 119.42 -2.44172 119.58C-2.14172 119.74 -1.91172 119.95 -1.75172 120.21V119.42H-0.0417191V125H-1.75172V124.21C-1.91839 124.47 -2.15172 124.68 -2.45172 124.84C-2.74505 125 -3.08839 125.08 -3.48172 125.08C-3.93505 125.08 -4.34839 124.963 -4.72172 124.73C-5.09505 124.49 -5.39172 124.153 -5.61172 123.72C-5.82505 123.28 -5.93172 122.773 -5.93172 122.2ZM-1.75172 122.21C-1.75172 121.783 -1.87172 121.447 -2.11172 121.2C-2.34505 120.953 -2.63172 120.83 -2.97172 120.83C-3.31172 120.83 -3.60172 120.953 -3.84172 121.2C-4.07505 121.44 -4.19172 121.773 -4.19172 122.2C-4.19172 122.627 -4.07505 122.967 -3.84172 123.22C-3.60172 123.467 -3.31172 123.59 -2.97172 123.59C-2.63172 123.59 -2.34505 123.467 -2.11172 123.22C-1.87172 122.973 -1.75172 122.637 -1.75172 122.21ZM4.10539 123.55V125H3.23539C2.61539 125 2.13206 124.85 1.78539 124.55C1.43872 124.243 1.26539 123.747 1.26539 123.06V120.84H0.585389V119.42H1.26539V118.06H2.97539V119.42H4.09539V120.84H2.97539V123.08C2.97539 123.247 3.01539 123.367 3.09539 123.44C3.17539 123.513 3.30872 123.55 3.49539 123.55H4.10539ZM5.71789 118.84C5.41789 118.84 5.17123 118.753 4.97789 118.58C4.79123 118.4 4.69789 118.18 4.69789 117.92C4.69789 117.653 4.79123 117.433 4.97789 117.26C5.17123 117.08 5.41789 116.99 5.71789 116.99C6.01123 116.99 6.25123 117.08 6.43789 117.26C6.63123 117.433 6.72789 117.653 6.72789 117.92C6.72789 118.18 6.63123 118.4 6.43789 118.58C6.25123 118.753 6.01123 118.84 5.71789 118.84ZM6.56789 119.42V125H4.85789V119.42H6.56789ZM10.1471 125.08C9.60044 125.08 9.10711 124.963 8.66711 124.73C8.23377 124.497 7.89044 124.163 7.63711 123.73C7.39044 123.297 7.26711 122.79 7.26711 122.21C7.26711 121.637 7.39377 121.133 7.64711 120.7C7.90044 120.26 8.24711 119.923 8.68711 119.69C9.12711 119.457 9.62044 119.34 10.1671 119.34C10.7138 119.34 11.2071 119.457 11.6471 119.69C12.0871 119.923 12.4338 120.26 12.6871 120.7C12.9404 121.133 13.0671 121.637 13.0671 122.21C13.0671 122.783 12.9371 123.29 12.6771 123.73C12.4238 124.163 12.0738 124.497 11.6271 124.73C11.1871 124.963 10.6938 125.08 10.1471 125.08ZM10.1471 123.6C10.4738 123.6 10.7504 123.48 10.9771 123.24C11.2104 123 11.3271 122.657 11.3271 122.21C11.3271 121.763 11.2138 121.42 10.9871 121.18C10.7671 120.94 10.4938 120.82 10.1671 120.82C9.83377 120.82 9.55711 120.94 9.33711 121.18C9.11711 121.413 9.00711 121.757 9.00711 122.21C9.00711 122.657 9.11377 123 9.32711 123.24C9.54711 123.48 9.82044 123.6 10.1471 123.6ZM17.1743 119.36C17.8276 119.36 18.3476 119.573 18.7343 120C19.1276 120.42 19.3243 121 19.3243 121.74V125H17.6243V121.97C17.6243 121.597 17.5276 121.307 17.3343 121.1C17.141 120.893 16.881 120.79 16.5543 120.79C16.2276 120.79 15.9676 120.893 15.7743 121.1C15.581 121.307 15.4843 121.597 15.4843 121.97V125H13.7743V119.42H15.4843V120.16C15.6576 119.913 15.891 119.72 16.1843 119.58C16.4776 119.433 16.8076 119.36 17.1743 119.36Z" fill="#79838B"/>
</g>
</g>
</g>
</g>
</g>
</g>
<defs>
<filter id="filter0_d_2_329" x="-106" y="0" width="327" height="168" filterUnits="userSpaceOnUse" color-interpolation-filters="sRGB">
<feFlood flood-opacity="0" result="BackgroundImageFix"/>
<feColorMatrix in="SourceAlpha" type="matrix" values="0 0 0 0 0 0 0 0 0 0 0 0 0 0 0 0 0 0 127 0" result="hardAlpha"/>
<feOffset dy="4"/>
<feGaussianBlur stdDeviation="2"/>
<feComposite in2="hardAlpha" operator="out"/>
<feColorMatrix type="matrix" values="0 0 0 0 0.0097819 0 0 0 0 0.686431 0 0 0 0 1 0 0 0 0.2 0"/>
<feBlend mode="normal" in2="BackgroundImageFix" result="effect1_dropShadow_2_329"/>
<feBlend mode="normal" in="SourceGraphic" in2="effect1_dropShadow_2_329" result="shape"/>
</filter>
<filter id="filter1_f_2_329" x="67.4753" y="-73.7094" width="228.86" height="234.236" filterUnits="userSpaceOnUse" color-interpolation-filters="sRGB">
<feFlood flood-opacity="0" result="BackgroundImageFix"/>
<feBlend mode="normal" in="SourceGraphic" in2="BackgroundImageFix" result="shape"/>
<feGaussianBlur stdDeviation="50" result="effect1_foregroundBlur_2_329"/>
</filter>
<filter id="filter2_f_2_329" x="155.496" y="20.0183" width="52.0881" height="46.9809" filterUnits="userSpaceOnUse" color-interpolation-filters="sRGB">
<feFlood flood-opacity="0" result="BackgroundImageFix"/>
<feBlend mode="normal" in="SourceGraphic" in2="BackgroundImageFix" result="shape"/>
<feGaussianBlur stdDeviation="5" result="effect1_foregroundBlur_2_329"/>
</filter>
<filter id="filter3_f_2_329" x="109.394" y="-18.3334" width="131.333" height="131.333" filterUnits="userSpaceOnUse" color-interpolation-filters="sRGB">
<feFlood flood-opacity="0" result="BackgroundImageFix"/>
<feBlend mode="normal" in="SourceGraphic" in2="BackgroundImageFix" result="shape"/>
<feGaussianBlur stdDeviation="25" result="effect1_foregroundBlur_2_329"/>
</filter>
<filter id="filter4_f_2_329" x="0.723633" y="-35.1316" width="272.745" height="288.896" filterUnits="userSpaceOnUse" color-interpolation-filters="sRGB">
<feFlood flood-opacity="0" result="BackgroundImageFix"/>
<feBlend mode="normal" in="SourceGraphic" in2="BackgroundImageFix" result="shape"/>
<feGaussianBlur stdDeviation="50" result="effect1_foregroundBlur_2_329"/>
</filter>
<filter id="filter5_f_2_329" x="85.7346" y="66.8634" width="100.883" height="88.0102" filterUnits="userSpaceOnUse" color-interpolation-filters="sRGB">
<feFlood flood-opacity="0" result="BackgroundImageFix"/>
<feBlend mode="normal" in="SourceGraphic" in2="BackgroundImageFix" result="shape"/>
<feGaussianBlur stdDeviation="5" result="effect1_foregroundBlur_2_329"/>
</filter>
<filter id="filter6_f_2_329" x="30.3548" y="31.0195" width="178.98" height="178.98" filterUnits="userSpaceOnUse" color-interpolation-filters="sRGB">
<feFlood flood-opacity="0" result="BackgroundImageFix"/>
<feBlend mode="normal" in="SourceGraphic" in2="BackgroundImageFix" result="shape"/>
<feGaussianBlur stdDeviation="25" result="effect1_foregroundBlur_2_329"/>
</filter>
<filter id="filter7_f_2_329" x="-106" y="87" width="140" height="88" filterUnits="userSpaceOnUse" color-interpolation-filters="sRGB">
<feFlood flood-opacity="0" result="BackgroundImageFix"/>
<feBlend mode="normal" in="SourceGraphic" in2="BackgroundImageFix" result="shape"/>
<feGaussianBlur stdDeviation="16" result="effect1_foregroundBlur_2_329"/>
</filter>
<radialGradient id="paint0_radial_2_329" cx="0" cy="0" r="1" gradientUnits="userSpaceOnUse" gradientTransform="translate(181.987 46.1789) rotate(-46.0086) scale(33.1225 26.6044)">
<stop offset="0.109324" stop-color="#3CC7F5"/>
<stop offset="1" stop-color="#5686F5"/>
</radialGradient>
<radialGradient id="paint1_radial_2_329" cx="0" cy="0" r="1" gradientUnits="userSpaceOnUse" gradientTransform="translate(181.905 50.9972) rotate(-46.025) scale(28.9908 23.2853)">
<stop offset="0.109324" stop-color="#3CC7F5"/>
<stop offset="1" stop-color="#5686F5"/>
</radialGradient>
<radialGradient id="paint2_radial_2_329" cx="0" cy="0" r="1" gradientUnits="userSpaceOnUse" gradientTransform="translate(181.988 46.1153) rotate(-46.0078) scale(33.1222 26.6042)">
<stop offset="0.109324" stop-color="#3CC7F5"/>
<stop offset="1" stop-color="#5686F5"/>
</radialGradient>
<radialGradient id="paint3_radial_2_329" cx="0" cy="0" r="1" gradientUnits="userSpaceOnUse" gradientTransform="translate(187.428 31.6666) rotate(51.5592) scale(16.8438 3.81296)">
<stop stop-color="white"/>
<stop offset="0.601048" stop-color="#BDDBF1" stop-opacity="0.28"/>
<stop offset="1" stop-color="#5686F5" stop-opacity="0"/>
</radialGradient>
<radialGradient id="paint4_radial_2_329" cx="0" cy="0" r="1" gradientUnits="userSpaceOnUse" gradientTransform="translate(175.06 47.3332) rotate(50.1428) scale(11.7082 11.638)">
<stop stop-color="white"/>
<stop offset="0.601048" stop-color="#BDDBF1" stop-opacity="0.28"/>
<stop offset="1" stop-color="#5686F5" stop-opacity="0"/>
</radialGradient>
<radialGradient id="paint5_radial_2_329" cx="0" cy="0" r="1" gradientUnits="userSpaceOnUse" gradientTransform="translate(137.302 117.6) rotate(-46.0086) scale(83.4903 67.0605)">
<stop offset="0.109324" stop-color="#3CC7F5"/>
<stop offset="1" stop-color="#5686F5"/>
</radialGradient>
<radialGradient id="paint6_radial_2_329" cx="0" cy="0" r="1" gradientUnits="userSpaceOnUse" gradientTransform="translate(137.096 129.745) rotate(-46.025) scale(73.0757 58.6942)">
<stop offset="0.109324" stop-color="#3CC7F5"/>
<stop offset="1" stop-color="#5686F5"/>
</radialGradient>
<radialGradient id="paint7_radial_2_329" cx="0" cy="0" r="1" gradientUnits="userSpaceOnUse" gradientTransform="translate(137.303 117.439) rotate(-46.0082) scale(83.4898 67.0601)">
<stop offset="0.109324" stop-color="#3CC7F5"/>
<stop offset="1" stop-color="#5686F5"/>
</radialGradient>
<radialGradient id="paint8_radial_2_329" cx="0" cy="0" r="1" gradientUnits="userSpaceOnUse" gradientTransform="translate(151.022 81.0195) rotate(51.5592) scale(42.4575 9.61115)">
<stop stop-color="white"/>
<stop offset="0.601048" stop-color="#BDDBF1" stop-opacity="0.28"/>
<stop offset="1" stop-color="#5686F5" stop-opacity="0"/>
</radialGradient>
<radialGradient id="paint9_radial_2_329" cx="0" cy="0" r="1" gradientUnits="userSpaceOnUse" gradientTransform="translate(119.845 120.51) rotate(50.1428) scale(29.5123 29.3353)">
<stop stop-color="white"/>
<stop offset="0.601048" stop-color="#BDDBF1" stop-opacity="0.28"/>
<stop offset="1" stop-color="#5686F5" stop-opacity="0"/>
</radialGradient>
<clipPath id="clip0_2_329">
<rect width="360" height="800" fill="white" transform="translate(-124 -135)"/>
</clipPath>
<clipPath id="clip1_2_329">
<rect width="307.451" height="250.98" fill="white" transform="translate(-342 197.727) rotate(-33.2842)"/>
</clipPath>
<clipPath id="clip2_2_329">
<rect width="245" height="200" fill="white" transform="translate(68 -6.54578) rotate(-33.2842)"/>
</clipPath>
<clipPath id="clip3_2_329">
<rect x="-102" width="319" height="160" rx="16" fill="white"/>
</clipPath>
</defs>
</svg>
